<svg width="21" height="21" viewBox="0 0 21 21" fill="none" xmlns="http://www.w3.org/2000/svg">
<g clip-path="url(#clip0_63_924)">
<path d="M15.2752 9.88302H11.2907V5.89893C11.2907 5.53668 10.9971 5.24268 10.6345 5.24268C10.2719 5.24268 9.97823 5.53668 9.97823 5.89893V9.88335H5.99414C5.63156 9.88335 5.33789 10.1773 5.33789 10.5396C5.33789 10.9018 5.63156 11.1958 5.99414 11.1958H9.97856V15.1803C9.97856 15.5425 10.2722 15.8365 10.6348 15.8365C10.9974 15.8365 11.2911 15.5425 11.2911 15.1803V11.1955H15.2755C15.6381 11.1955 15.9317 10.9015 15.9317 10.5393C15.9317 10.177 15.6377 9.88302 15.2752 9.88302Z" fill="white"/>
<path d="M10.5 0C4.71023 0 0 4.71023 0 10.5C0 16.2898 4.71023 21 10.5 21C16.2898 21 21 16.2898 21 10.5C21 4.71023 16.2898 0 10.5 0ZM10.5 19.6875C5.43408 19.6875 1.3125 15.5659 1.3125 10.5C1.3125 5.43408 5.43408 1.3125 10.5 1.3125C15.5659 1.3125 19.6875 5.43408 19.6875 10.5C19.6875 15.5659 15.5659 19.6875 10.5 19.6875Z" fill="white"/>
</g>
<defs>
<clipPath id="clip0_63_924">
<rect width="21" height="21" fill="white"/>
</clipPath>
</defs>
</svg>
