<svg width="325" height="16" viewBox="0 0 325 16" fill="none" xmlns="http://www.w3.org/2000/svg">
<line x1="0.25" y1="7.75" x2="102.75" y2="7.75" stroke="white" stroke-width="0.5" stroke-linecap="round"/>
<path d="M144.039 13V3.54545H147.501C148.172 3.54545 148.728 3.65625 149.168 3.87784C149.608 4.09635 149.937 4.39335 150.156 4.76882C150.374 5.14122 150.483 5.56132 150.483 6.02912C150.483 6.42306 150.411 6.75544 150.266 7.02628C150.122 7.29403 149.928 7.50947 149.685 7.67258C149.445 7.83262 149.18 7.94957 148.891 8.02344V8.11577C149.205 8.13116 149.511 8.23272 149.809 8.42045C150.111 8.60511 150.36 8.86825 150.557 9.20987C150.754 9.55149 150.853 9.96697 150.853 10.4563C150.853 10.9395 150.739 11.3735 150.511 11.7582C150.286 12.1398 149.939 12.4429 149.468 12.6676C148.997 12.8892 148.395 13 147.663 13H144.039ZM145.465 11.7766H147.524C148.207 11.7766 148.697 11.6443 148.992 11.3796C149.288 11.1149 149.435 10.7841 149.435 10.3871C149.435 10.0885 149.36 9.81463 149.209 9.56534C149.058 9.31605 148.843 9.11754 148.563 8.96982C148.286 8.82209 147.957 8.74822 147.575 8.74822H145.465V11.7766ZM145.465 7.63565H147.376C147.696 7.63565 147.984 7.5741 148.24 7.45099C148.498 7.32789 148.703 7.15554 148.854 6.93395C149.008 6.70928 149.085 6.4446 149.085 6.13991C149.085 5.74905 148.948 5.42128 148.674 5.15661C148.4 4.89193 147.98 4.75959 147.413 4.75959H145.465V7.63565ZM155.421 13.1431C154.756 13.1431 154.176 12.9908 153.68 12.6861C153.185 12.3814 152.8 11.9551 152.526 11.4073C152.252 10.8595 152.115 10.2193 152.115 9.48686C152.115 8.7513 152.252 8.10807 152.526 7.55717C152.8 7.00627 153.185 6.57848 153.68 6.27379C154.176 5.96911 154.756 5.81676 155.421 5.81676C156.085 5.81676 156.666 5.96911 157.161 6.27379C157.657 6.57848 158.041 7.00627 158.315 7.55717C158.589 8.10807 158.726 8.7513 158.726 9.48686C158.726 10.2193 158.589 10.8595 158.315 11.4073C158.041 11.9551 157.657 12.3814 157.161 12.6861C156.666 12.9908 156.085 13.1431 155.421 13.1431ZM155.425 11.9844C155.856 11.9844 156.213 11.8705 156.496 11.6428C156.779 11.415 156.989 11.1119 157.124 10.7333C157.263 10.3548 157.332 9.93774 157.332 9.48224C157.332 9.02983 157.263 8.61435 157.124 8.2358C156.989 7.85417 156.779 7.54794 156.496 7.31712C156.213 7.08629 155.856 6.97088 155.425 6.97088C154.991 6.97088 154.631 7.08629 154.345 7.31712C154.062 7.54794 153.851 7.85417 153.713 8.2358C153.577 8.61435 153.509 9.02983 153.509 9.48224C153.509 9.93774 153.577 10.3548 153.713 10.7333C153.851 11.1119 154.062 11.415 154.345 11.6428C154.631 11.8705 154.991 11.9844 155.425 11.9844ZM161.619 11.0657L164.745 5.90909H166.231V13H164.879V7.83878L161.767 13H160.267V5.90909H161.619V11.0657ZM164.154 3.50852H165.29C165.29 4.02865 165.105 4.45182 164.736 4.77805C164.369 5.10121 163.874 5.26278 163.249 5.26278C162.627 5.26278 162.133 5.10121 161.767 4.77805C161.401 4.45182 161.218 4.02865 161.218 3.50852H162.349C162.349 3.73935 162.417 3.94401 162.552 4.12251C162.687 4.29794 162.92 4.38565 163.249 4.38565C163.572 4.38565 163.803 4.29794 163.941 4.12251C164.083 3.94709 164.154 3.74242 164.154 3.50852ZM167.208 7.10014V5.90909H173.191V7.10014H170.878V13H169.53V7.10014H167.208ZM176.003 11.0657L179.129 5.90909H180.615V13H179.262V7.83878L176.151 13H174.651V5.90909H176.003V11.0657Z" fill="#A5EC00"/>
<line x1="222.25" y1="7.75" x2="324.75" y2="7.75" stroke="white" stroke-width="0.5" stroke-linecap="round"/>
</svg>
