<svg width="255" height="55" viewBox="0 0 255 55" fill="none" xmlns="http://www.w3.org/2000/svg">
<g clip-path="url(#clip0_10_351)">
<mask id="mask0_10_351" style="mask-type:luminance" maskUnits="userSpaceOnUse" x="0" y="6" width="44" height="44">
<path d="M44 6H0V50H44V6Z" fill="white"/>
</mask>
<g mask="url(#mask0_10_351)">
<path d="M7.75187 32.1543C7.79435 35.1423 9.528 39.5011 9.8913 39.5011C10.2546 39.5011 12.7308 36.9991 13.928 34.8589C15.6216 31.8314 14.1298 23.8387 14.3317 22.8699C14.4806 22.155 15.18 21.7815 15.906 21.8607C16.5301 21.9288 17.2854 22.2553 17.1574 22.8699C16.9555 23.8387 16.8748 32.1139 17.1574 32.1543C17.4483 32.1959 20.6493 30.0017 22.4839 28.0236C23.7153 26.6959 24.6516 25.5493 25.6326 24.0272C25.8753 23.6506 26.4699 22.1966 26.6436 20.9323C26.8839 19.1832 26.3744 18.8921 27.2491 18.3084C27.9572 17.8359 28.8912 17.6485 29.4289 18.3084C29.8671 18.8462 29.5228 19.3974 29.4289 20.0846C29.3007 21.023 28.6619 22.3855 28.6619 22.3855C28.6619 22.3855 27.251 24.9226 26.3188 26.3685C24.398 29.3481 20.2568 32.6526 20.306 32.8002C20.3552 32.9478 28.0161 32.5983 28.6619 32.8002C29.1837 32.9632 29.4471 33.4246 29.4289 33.9708C29.4116 34.491 29.117 34.8079 28.6619 35.0607C27.9353 35.4644 19.1335 33.5942 17.1574 35.0607C14.4425 37.0755 11.6271 40.4969 11.6271 41.7213C11.6271 41.9502 14.6931 42.4346 14.6931 42.4346C14.6931 42.4346 19.0376 43.1629 21.7592 42.6093C25.3098 41.8873 27.1622 40.4592 29.7922 37.9671C31.9326 35.939 32.9504 34.5057 34.1922 31.8314C35.4579 29.1057 35.6216 27.3381 36.0491 24.3635C36.6523 20.166 36.3867 13.7873 36.0491 13.5048C35.7115 13.2222 30.2457 13.0604 26.6436 13.7873C19.2839 15.2726 13.9429 17.299 10.2546 23.8387C8.58866 26.7926 7.70366 28.7633 7.75187 32.1543Z" fill="#679300"/>
<path d="M42.3855 6.00047C43.2675 6.02158 43.9785 6.73269 43.9996 7.61468H44.0001V12.7413C44.0001 13.3432 43.5122 13.8312 42.9102 13.8312C42.3083 13.8312 41.8203 13.3432 41.8203 12.7413V8.66422C41.8203 8.39669 41.6035 8.17982 41.3359 8.17982H37.2589C36.6569 8.17982 36.1689 7.69184 36.1689 7.08991C36.1689 6.48797 36.6569 6 37.2589 6H42.3855V6.00047Z" fill="#679300"/>
<path d="M0.000473051 7.61468C0.0215849 6.73269 0.73269 6.02166 1.61468 6.00055V6H6.74128C7.34322 6 7.83119 6.48797 7.83119 7.08991C7.83119 7.69184 7.34322 8.17982 6.74128 8.17982H2.66422C2.39669 8.17982 2.17982 8.39669 2.17982 8.66422V12.7413C2.17982 13.3432 1.69184 13.8312 1.08991 13.8312C0.487969 13.8312 6.04656e-08 13.3432 0 12.7413V7.61468H0.000473051Z" fill="#679300"/>
<path d="M43.9997 48.3855C43.9786 49.2675 43.2675 49.9785 42.3855 49.9996V50.0001H37.2589C36.6569 50.0001 36.1689 49.5122 36.1689 48.9102C36.1689 48.3083 36.6569 47.8203 37.2589 47.8203H41.3359C41.6035 47.8203 41.8203 47.6035 41.8203 47.3359V43.2589C41.8203 42.6569 42.3083 42.1689 42.9102 42.1689C43.5122 42.1689 44.0001 42.6569 44.0001 43.2589V48.3855H43.9997Z" fill="#679300"/>
<path d="M1.61468 49.9997C0.73269 49.9786 0.0216647 49.2675 0.000551892 48.3855H0V43.2589C1.04027e-08 42.6569 0.487969 42.1689 1.08991 42.1689C1.69184 42.1689 2.17982 42.6569 2.17982 43.2589V47.3359C2.17982 47.6035 2.39669 47.8203 2.66422 47.8203H6.74128C7.34322 47.8203 7.83119 48.3083 7.83119 48.9102C7.83119 49.5122 7.34322 50.0001 6.74128 50.0001H1.61468V49.9997Z" fill="#679300"/>
</g>
</g>
<path d="M68.504 7.6C73.208 7.6 76.632 10.832 76.632 15.696C76.632 20.464 73.208 23.632 68.504 23.632H66.488V30H60.952V7.6H68.504ZM68.12 18.704C69.912 18.704 71 17.552 71 15.696C71 13.776 69.912 12.656 68.12 12.656H66.488V18.704H68.12ZM84.738 24.784H90.946V30H79.202V7.6H84.738V24.784ZM102.511 7.376L111.151 29.648V30H105.359L104.335 27.12H98.063L97.039 30H91.279V29.648L99.951 7.376H102.511ZM101.231 16.72L99.727 22.192H102.671L101.231 16.72ZM124.247 7.6H129.719V30.16H127.351L118.359 19.184L118.487 22.64V30H113.015V7.408H115.383L124.375 18.256L124.247 14.416V7.6ZM146.312 7.6V12.816H141.992V30H136.456V12.816H132.136V7.6H146.312ZM166.406 17.264C166.438 17.808 166.47 18.32 166.47 18.832C166.47 25.328 163.814 30.32 157.382 30.32C151.334 30.32 147.398 25.872 147.398 18.8C147.398 11.76 151.334 7.28 157.382 7.28C161.254 7.28 165.414 9.616 166.182 14.992H160.774C160.23 13.296 158.918 12.56 157.286 12.56C154.694 12.56 152.998 14.768 152.998 18.8C152.998 22.8 154.662 25.04 157.254 25.04C159.366 25.04 160.678 23.92 160.966 22.032H157.062V17.264H166.406ZM177.105 30.32C172.209 30.32 169.073 27.184 169.073 22.512V7.6H174.609V22.384C174.609 24.048 175.473 25.04 177.105 25.04C178.801 25.04 179.633 24.048 179.633 22.384V7.6H185.169V22.512C185.169 27.184 182.033 30.32 177.105 30.32ZM197.699 7.376L206.339 29.648V30H200.547L199.523 27.12H193.251L192.227 30H186.466V29.648L195.139 7.376H197.699ZM196.419 16.72L194.915 22.192H197.859L196.419 16.72ZM220.906 21.584L224.778 29.712V30H218.954L216.01 22.992H213.738V30H208.202V7.6H215.85C220.618 7.6 223.818 10.736 223.818 15.248C223.818 18.032 222.762 20.24 220.906 21.584ZM213.738 18.16H215.626C217.258 18.16 218.218 17.168 218.218 15.408C218.218 13.68 217.258 12.656 215.626 12.656H213.738V18.16ZM234.593 7.6C241.057 7.6 244.769 11.728 244.769 18.736C244.769 25.808 241.057 30 234.593 30H227.265V7.6H234.593ZM234.497 24.784C237.569 24.784 239.169 22.672 239.169 18.736C239.169 14.832 237.537 12.816 234.497 12.816H232.865V24.784H234.497Z" fill="#679300"/>
<path d="M64.73 39.5H67.445V39.65L64.52 45.845V50H61.925V45.845L58.97 39.65V39.5H61.7L62.6 41.585L63.215 43.31L63.83 41.585L64.73 39.5ZM72.1423 50.15C69.3223 50.15 67.4923 48.05 67.4923 44.75C67.4923 41.45 69.3223 39.35 72.1423 39.35C74.9923 39.35 76.7923 41.45 76.7923 44.75C76.7923 48.05 74.9923 50.15 72.1423 50.15ZM72.1423 47.675C73.4623 47.675 74.1673 46.61 74.1673 44.75C74.1673 42.875 73.4773 41.825 72.1423 41.825C70.8373 41.825 70.1173 42.845 70.1173 44.75C70.1173 46.58 70.8223 47.675 72.1423 47.675ZM81.857 50.15C79.562 50.15 78.092 48.68 78.092 46.49V39.5H80.687V46.43C80.687 47.21 81.092 47.675 81.857 47.675C82.652 47.675 83.042 47.21 83.042 46.43V39.5H85.637V46.49C85.637 48.68 84.167 50.15 81.857 50.15ZM93.3505 46.055L95.1655 49.865V50H92.4355L91.0555 46.715H89.9905V50H87.3955V39.5H90.9805C93.2155 39.5 94.7155 40.97 94.7155 43.085C94.7155 44.39 94.2205 45.425 93.3505 46.055ZM89.9905 44.45H90.8755C91.6405 44.45 92.0905 43.985 92.0905 43.16C92.0905 42.35 91.6405 41.87 90.8755 41.87H89.9905V44.45ZM104.871 41.945H101.856V43.64H104.481V46.07H101.856V50H99.2314V39.5H104.871V41.945ZM106.219 50V39.5H108.844V50H106.219ZM113.268 47.555H116.403V50H110.643V39.5H116.283V41.945H113.268V43.49H116.013V45.89H113.268V47.555ZM120.518 47.555H123.428V50H117.923V39.5H120.518V47.555ZM127.979 39.5C131.009 39.5 132.749 41.435 132.749 44.72C132.749 48.035 131.009 50 127.979 50H124.544V39.5H127.979ZM127.934 47.555C129.374 47.555 130.124 46.565 130.124 44.72C130.124 42.89 129.359 41.945 127.934 41.945H127.169V47.555H127.934ZM135.028 39.185C135.823 39.185 136.483 39.755 136.483 40.685C136.483 40.955 136.468 41.135 136.303 41.615L135.658 43.55H134.278V43.52L134.593 41.975C133.993 41.915 133.557 41.435 133.557 40.685C133.557 39.725 134.233 39.185 135.028 39.185ZM141.088 50.15C138.792 50.15 137.307 48.8 137.307 46.685H139.798C139.798 47.36 140.263 47.75 141.043 47.75C141.838 47.75 142.288 47.435 142.288 46.91C142.288 46.22 141.598 46.025 140.667 45.845C138.478 45.425 137.443 44.36 137.443 42.53C137.443 40.655 138.883 39.35 141.028 39.35C143.203 39.35 144.628 40.7 144.628 42.755H142.153C142.153 42.11 141.748 41.72 141.028 41.72C140.383 41.72 139.993 42.02 139.993 42.53C139.993 42.905 140.173 43.31 141.343 43.55C143.773 44.045 144.868 44.99 144.868 46.865C144.868 48.83 143.353 50.15 141.088 50.15ZM152.471 39.5C155.501 39.5 157.241 41.435 157.241 44.72C157.241 48.035 155.501 50 152.471 50H149.036V39.5H152.471ZM152.426 47.555C153.866 47.555 154.616 46.565 154.616 44.72C154.616 42.89 153.851 41.945 152.426 41.945H151.661V47.555H152.426ZM158.616 50V39.5H161.241V50H158.616ZM171.5 44.03C171.515 44.285 171.53 44.525 171.53 44.765C171.53 47.81 170.285 50.15 167.27 50.15C164.435 50.15 162.59 48.065 162.59 44.75C162.59 41.45 164.435 39.35 167.27 39.35C169.085 39.35 171.035 40.445 171.395 42.965H168.86C168.605 42.17 167.99 41.825 167.225 41.825C166.01 41.825 165.215 42.86 165.215 44.75C165.215 46.625 165.995 47.675 167.21 47.675C168.2 47.675 168.815 47.15 168.95 46.265H167.12V44.03H171.5ZM172.825 50V39.5H175.45V50H172.825ZM183.204 39.5V41.945H181.179V50H178.584V41.945H176.559V39.5H183.204ZM187.897 39.395L191.947 49.835V50H189.232L188.752 48.65H185.812L185.332 50H182.632V49.835L186.697 39.395H187.897ZM187.297 43.775L186.592 46.34H187.972L187.297 43.775ZM195.415 47.555H198.325V50H192.82V39.5H195.415V47.555ZM205.321 50.15C203.026 50.15 201.541 48.8 201.541 46.685H204.031C204.031 47.36 204.496 47.75 205.276 47.75C206.071 47.75 206.521 47.435 206.521 46.91C206.521 46.22 205.831 46.025 204.901 45.845C202.711 45.425 201.676 44.36 201.676 42.53C201.676 40.655 203.116 39.35 205.261 39.35C207.436 39.35 208.861 40.7 208.861 42.755H206.386C206.386 42.11 205.981 41.72 205.261 41.72C204.616 41.72 204.226 42.02 204.226 42.53C204.226 42.905 204.406 43.31 205.576 43.55C208.006 44.045 209.101 44.99 209.101 46.865C209.101 48.83 207.586 50.15 205.321 50.15ZM215.602 39.5H218.227V50H215.602V45.83H213.082V50H210.457V39.5H213.082V43.385H215.602V39.5ZM220.052 50V39.5H222.677V50H220.052ZM227.101 47.555H230.236V50H224.476V39.5H230.116V41.945H227.101V43.49H229.846V45.89H227.101V47.555ZM234.351 47.555H237.261V50H231.756V39.5H234.351V47.555ZM241.812 39.5C244.842 39.5 246.582 41.435 246.582 44.72C246.582 48.035 244.842 50 241.812 50H238.377V39.5H241.812ZM241.767 47.555C243.207 47.555 243.957 46.565 243.957 44.72C243.957 42.89 243.192 41.945 241.767 41.945H241.002V47.555H241.767Z" fill="#F9FAEC"/>
<defs>
<clipPath id="clip0_10_351">
<rect width="44" height="44" fill="white" transform="translate(0 6)"/>
</clipPath>
</defs>
</svg>
