<svg width="545" height="545" viewBox="0 0 545 545" fill="none" xmlns="http://www.w3.org/2000/svg">
<g clip-path="url(#clip0_4_1068)">
<path d="M96.0232 323.956C96.5494 360.966 118.023 414.956 122.523 414.956C127.023 414.956 157.694 383.966 172.523 357.456C193.5 319.956 175.023 220.956 177.523 208.956C179.368 200.101 188.031 195.475 197.023 196.456C204.754 197.299 214.109 201.343 212.523 208.956C210.023 220.956 209.023 323.456 212.523 323.956C216.127 324.471 255.775 297.293 278.5 272.791C293.752 256.346 305.35 242.144 317.5 223.291C320.507 218.626 327.872 200.616 330.023 184.956C333 163.291 326.688 159.686 337.523 152.456C346.294 146.603 357.863 144.282 364.523 152.456C369.95 159.117 365.686 165.944 364.523 174.456C362.935 186.08 355.023 202.956 355.023 202.956C355.023 202.956 337.546 234.381 326 252.291C302.208 289.197 250.914 330.128 251.523 331.956C252.132 333.784 347.023 329.456 355.023 331.956C361.485 333.975 364.748 339.69 364.523 346.456C364.309 352.899 360.659 356.825 355.023 359.956C346.023 364.956 237 341.791 212.523 359.956C178.896 384.912 144.023 427.291 144.023 442.456C144.023 445.291 182 451.291 182 451.291C182 451.291 235.812 460.312 269.523 453.456C313.502 444.512 336.446 426.824 369.023 395.956C395.534 370.835 408.141 353.081 423.523 319.956C439.2 286.195 441.228 264.301 446.523 227.456C453.995 175.465 450.705 96.4561 446.523 92.956C442.341 89.456 374.64 87.4521 330.023 96.456C238.863 114.853 172.708 139.953 127.023 220.956C106.388 257.544 95.426 281.954 96.0232 323.956Z" fill="#679300" stroke="#679300" stroke-width="3"/>
<path d="M525 0.00585938C535.925 0.267359 544.732 9.07537 544.993 20H545V83.5C545 90.9558 538.956 97 531.5 97C524.044 97 518 90.9558 518 83.5V33C518 29.6863 515.314 27 512 27H461.5C454.044 27 448 20.9558 448 13.5C448 6.04416 454.044 7.48949e-07 461.5 0H525V0.00585938Z" fill="#679300"/>
<path d="M0.00585938 20C0.267359 9.07536 9.07537 0.268347 20 0.00683594V0H83.5C90.9558 1.28852e-07 97 6.04416 97 13.5C97 20.9558 90.9558 27 83.5 27H33C29.6863 27 27 29.6863 27 33L27 83.5C27 90.9558 20.9558 97 13.5 97C6.04416 97 7.48949e-07 90.9558 0 83.5L0 20H0.00585938Z" fill="#679300"/>
<path d="M544.994 525C544.733 535.925 535.925 544.732 525 544.993V545H461.5C454.044 545 448 538.956 448 531.5C448 524.044 454.044 518 461.5 518H512C515.314 518 518 515.314 518 512V461.5C518 454.044 524.044 448 531.5 448C538.956 448 545 454.044 545 461.5V525H544.994Z" fill="#679300"/>
<path d="M20 544.994C9.07536 544.733 0.268347 535.925 0.00683594 525H0L0 461.5C1.28852e-07 454.044 6.04416 448 13.5 448C20.9558 448 27 454.044 27 461.5L27 512C27 515.314 29.6863 518 33 518H83.5C90.9558 518 97 524.044 97 531.5C97 538.956 90.9558 545 83.5 545H20V544.994Z" fill="#679300"/>
</g>
<defs>
<clipPath id="clip0_4_1068">
<rect width="545" height="545" fill="white"/>
</clipPath>
</defs>
</svg>
