<svg width="18" height="18" viewBox="0 0 18 18" fill="none" xmlns="http://www.w3.org/2000/svg">
<path d="M9 1.5C7.51664 1.5 6.0666 1.93987 4.83323 2.76398C3.59986 3.58809 2.63856 4.75943 2.07091 6.12987C1.50325 7.50032 1.35472 9.00832 1.64411 10.4632C1.9335 11.918 2.64781 13.2544 3.6967 14.3033C4.7456 15.3522 6.08197 16.0665 7.53683 16.3559C8.99168 16.6453 10.4997 16.4968 11.8701 15.9291C13.2406 15.3614 14.4119 14.4001 15.236 13.1668C16.0601 11.9334 16.5 10.4834 16.5 9C16.5 8.01509 16.306 7.03982 15.9291 6.12987C15.5522 5.21993 14.9997 4.39314 14.3033 3.6967C13.6069 3.00026 12.7801 2.44781 11.8701 2.0709C10.9602 1.69399 9.98492 1.5 9 1.5ZM9 15C7.81332 15 6.65328 14.6481 5.66658 13.9888C4.67989 13.3295 3.91085 12.3925 3.45673 11.2961C3.0026 10.1997 2.88378 8.99334 3.11529 7.82946C3.3468 6.66557 3.91825 5.59647 4.75736 4.75736C5.59648 3.91824 6.66558 3.3468 7.82946 3.11529C8.99335 2.88378 10.1997 3.0026 11.2961 3.45672C12.3925 3.91085 13.3295 4.67988 13.9888 5.66658C14.6481 6.65327 15 7.81331 15 9C15 10.5913 14.3679 12.1174 13.2426 13.2426C12.1174 14.3679 10.5913 15 9 15Z" fill="white"/>
<path d="M9 4.50005C8.30381 4.50005 7.63613 4.77661 7.14384 5.2689C6.65156 5.76118 6.375 6.42886 6.375 7.12505C6.375 7.32396 6.45402 7.51473 6.59467 7.65538C6.73532 7.79603 6.92609 7.87505 7.125 7.87505C7.32391 7.87505 7.51468 7.79603 7.65533 7.65538C7.79598 7.51473 7.875 7.32396 7.875 7.12505C7.875 6.90255 7.94098 6.68504 8.0646 6.50003C8.18821 6.31503 8.36391 6.17083 8.56948 6.08569C8.77505 6.00054 9.00125 5.97826 9.21948 6.02167C9.43771 6.06508 9.63816 6.17222 9.7955 6.32956C9.95283 6.48689 10.06 6.68734 10.1034 6.90557C10.1468 7.1238 10.1245 7.35 10.0394 7.55557C9.95422 7.76114 9.81002 7.93684 9.62502 8.06045C9.44001 8.18407 9.2225 8.25005 9 8.25005C8.80109 8.25005 8.61032 8.32907 8.46967 8.46972C8.32902 8.61037 8.25 8.80114 8.25 9.00005V10.5001C8.25 10.699 8.32902 10.8897 8.46967 11.0304C8.61032 11.171 8.80109 11.2501 9 11.2501C9.19891 11.2501 9.38968 11.171 9.53033 11.0304C9.67098 10.8897 9.75 10.699 9.75 10.5001V9.63005C10.3561 9.45305 10.8777 9.06295 11.2189 8.53163C11.56 8.00031 11.6976 7.3636 11.6062 6.73885C11.5149 6.1141 11.2008 5.54342 10.7218 5.13199C10.2429 4.72057 9.63138 4.49613 9 4.50005Z" fill="white"/>
<path d="M9 13.5C9.41421 13.5 9.75 13.1642 9.75 12.75C9.75 12.3358 9.41421 12 9 12C8.58579 12 8.25 12.3358 8.25 12.75C8.25 13.1642 8.58579 13.5 9 13.5Z" fill="white"/>
</svg>
