<svg width="16" height="16" viewBox="0 0 16 16" fill="none" xmlns="http://www.w3.org/2000/svg">
<path d="M8.50004 15.9375H7.43754C7.04599 15.9404 6.6671 15.799 6.37315 15.5403C6.07921 15.2816 5.89077 14.9238 5.84379 14.535C5.48728 14.4224 5.14077 14.2802 4.80785 14.11C4.49959 14.3538 4.11214 14.4751 3.71992 14.4505C3.3277 14.426 2.95837 14.2575 2.68285 13.9772L1.96035 13.2282C1.68012 12.9527 1.51156 12.5833 1.48705 12.1911C1.46253 11.7989 1.58379 11.4114 1.82754 11.1032C1.65871 10.7788 1.51658 10.4412 1.40254 10.0938C1.01381 10.0468 0.655976 9.85838 0.3973 9.56443C0.138625 9.27048 -0.0027866 8.89159 4.16167e-05 8.50004V7.43754C-0.0027866 7.04599 0.138625 6.6671 0.3973 6.37315C0.655976 6.07921 1.01381 5.89077 1.40254 5.84379C1.51521 5.48728 1.65737 5.14077 1.82754 4.80785C1.58379 4.49959 1.46253 4.11214 1.48705 3.71992C1.51156 3.3277 1.68012 2.95837 1.96035 2.68285L2.70942 1.96035C2.98493 1.68012 3.35426 1.51156 3.74648 1.48705C4.13871 1.46253 4.52616 1.58379 4.83442 1.82754C5.15878 1.65871 5.49636 1.51658 5.84379 1.40254C5.89077 1.01381 6.07921 0.655976 6.37315 0.3973C6.6671 0.138625 7.04599 -0.0027866 7.43754 4.16167e-05H8.50004C8.89159 -0.0027866 9.27048 0.138625 9.56443 0.3973C9.85838 0.655976 10.0468 1.01381 10.0938 1.40254C10.4503 1.51521 10.7968 1.65737 11.1297 1.82754C11.438 1.58379 11.8254 1.46253 12.2177 1.48705C12.6099 1.51156 12.9792 1.68012 13.2547 1.96035L13.9772 2.70942C14.2575 2.98493 14.426 3.35426 14.4505 3.74648C14.4751 4.13871 14.3538 4.52616 14.11 4.83442C14.2802 5.16734 14.4224 5.51385 14.535 5.87035C14.9192 5.91678 15.2734 6.1014 15.5315 6.38977C15.7896 6.67815 15.9339 7.05057 15.9375 7.43754V8.50004C15.9404 8.89159 15.799 9.27048 15.5403 9.56443C15.2816 9.85838 14.9238 10.0468 14.535 10.0938C14.4224 10.4503 14.2802 10.7968 14.11 11.1297C14.3538 11.438 14.4751 11.8254 14.4505 12.2177C14.426 12.6099 14.2575 12.9792 13.9772 13.2547L13.2282 13.9772C12.9527 14.2575 12.5833 14.426 12.1911 14.4505C11.7989 14.4751 11.4114 14.3538 11.1032 14.11C10.7702 14.2802 10.4237 14.4224 10.0672 14.535C10.0208 14.9192 9.83618 15.2734 9.54781 15.5315C9.25943 15.7896 8.88701 15.9339 8.50004 15.9375ZM4.73348 12.9254C4.82905 12.9237 4.92308 12.9495 5.00442 12.9997C5.47413 13.276 5.98018 13.4852 6.50785 13.6213C6.62474 13.6514 6.72789 13.7204 6.80031 13.817C6.87273 13.9136 6.91011 14.0319 6.90629 14.1525V14.3438C6.90629 14.4847 6.96226 14.6198 7.06189 14.7194C7.16152 14.8191 7.29665 14.875 7.43754 14.875H8.50004C8.64094 14.875 8.77606 14.8191 8.87569 14.7194C8.97532 14.6198 9.03129 14.4847 9.03129 14.3438V14.1366C9.02747 14.016 9.06485 13.8976 9.13728 13.8011C9.2097 13.7045 9.31284 13.6355 9.42973 13.6054C9.9574 13.4693 10.4635 13.2601 10.9332 12.9838C11.0341 12.9243 11.1519 12.8999 11.2681 12.9143C11.3844 12.9287 11.4926 12.9812 11.576 13.0635L11.7247 13.2122C11.7741 13.262 11.8329 13.3015 11.8976 13.3285C11.9623 13.3555 12.0318 13.3694 12.1019 13.3694C12.172 13.3694 12.2415 13.3555 12.3062 13.3285C12.371 13.3015 12.4297 13.262 12.4791 13.2122L13.2282 12.4632C13.278 12.4138 13.3175 12.355 13.3445 12.2903C13.3714 12.2255 13.3853 12.1561 13.3853 12.086C13.3853 12.0158 13.3714 11.9464 13.3445 11.8817C13.3175 11.8169 13.278 11.7582 13.2282 11.7088L13.0794 11.56C12.9971 11.4767 12.9447 11.3684 12.9303 11.2522C12.9159 11.1359 12.9403 11.0182 12.9997 10.9172C13.276 10.4475 13.4852 9.94147 13.6213 9.41379C13.6514 9.29691 13.7204 9.19376 13.817 9.12134C13.9136 9.04892 14.0319 9.01154 14.1525 9.01535H14.3438C14.4847 9.01535 14.6198 8.95938 14.7194 8.85975C14.8191 8.76013 14.875 8.625 14.875 8.4841V7.43754C14.875 7.29665 14.8191 7.16152 14.7194 7.06189C14.6198 6.96226 14.4847 6.90629 14.3438 6.90629H14.1366C14.016 6.91011 13.8976 6.87273 13.8011 6.80031C13.7045 6.72789 13.6355 6.62474 13.6054 6.50785C13.4693 5.98018 13.2601 5.47413 12.9838 5.00442C12.9243 4.90348 12.8999 4.78572 12.9143 4.66946C12.9287 4.55321 12.9812 4.44497 13.0635 4.3616L13.2122 4.21285C13.262 4.16347 13.3015 4.10471 13.3285 4.03997C13.3555 3.97524 13.3694 3.9058 13.3694 3.83567C13.3694 3.76554 13.3555 3.6961 13.3285 3.63136C13.3015 3.56662 13.262 3.50787 13.2122 3.45848L12.4791 2.70942C12.4297 2.65962 12.371 2.6201 12.3062 2.59313C12.2415 2.56616 12.172 2.55227 12.1019 2.55227C12.0318 2.55227 11.9623 2.56616 11.8976 2.59313C11.8329 2.6201 11.7741 2.65962 11.7247 2.70942L11.576 2.85817C11.4926 2.94046 11.3844 2.9929 11.2681 3.00731C11.1519 3.02172 11.0341 2.9973 10.9332 2.93785C10.4635 2.66158 9.9574 2.45237 9.42973 2.31629C9.31284 2.28618 9.2097 2.21715 9.13728 2.12059C9.06485 2.02403 9.02747 1.90568 9.03129 1.78504V1.59379C9.03129 1.4529 8.97532 1.31777 8.87569 1.21814C8.77606 1.11851 8.64094 1.06254 8.50004 1.06254H7.43754C7.29665 1.06254 7.16152 1.11851 7.06189 1.21814C6.96226 1.31777 6.90629 1.4529 6.90629 1.59379V1.80098C6.91011 1.92162 6.87273 2.03997 6.80031 2.13653C6.72789 2.23309 6.62474 2.30211 6.50785 2.33223C5.98018 2.4683 5.47413 2.67752 5.00442 2.95379C4.90348 3.01324 4.78572 3.03766 4.66946 3.02325C4.55321 3.00884 4.44497 2.9564 4.3616 2.8741L4.21285 2.70942C4.16347 2.65962 4.10471 2.6201 4.03997 2.59313C3.97524 2.56616 3.9058 2.55227 3.83567 2.55227C3.76554 2.55227 3.6961 2.56616 3.63136 2.59313C3.56662 2.6201 3.50787 2.65962 3.45848 2.70942L2.70942 3.45848C2.65962 3.50787 2.6201 3.56662 2.59313 3.63136C2.56616 3.6961 2.55227 3.76554 2.55227 3.83567C2.55227 3.9058 2.56616 3.97524 2.59313 4.03997C2.6201 4.10471 2.65962 4.16347 2.70942 4.21285L2.85817 4.3616C2.94046 4.44497 2.9929 4.55321 3.00731 4.66946C3.02172 4.78572 2.9973 4.90348 2.93785 5.00442C2.66158 5.47413 2.45237 5.98018 2.31629 6.50785C2.28618 6.62474 2.21715 6.72789 2.12059 6.80031C2.02403 6.87273 1.90568 6.91011 1.78504 6.90629H1.59379C1.4529 6.90629 1.31777 6.96226 1.21814 7.06189C1.11851 7.16152 1.06254 7.29665 1.06254 7.43754V8.50004C1.06254 8.64094 1.11851 8.77606 1.21814 8.87569C1.31777 8.97532 1.4529 9.03129 1.59379 9.03129H1.80098C1.92162 9.02747 2.03997 9.06485 2.13653 9.13728C2.23309 9.2097 2.30211 9.31284 2.33223 9.42973C2.4683 9.9574 2.67752 10.4635 2.95379 10.9332C3.01324 11.0341 3.03766 11.1519 3.02325 11.2681C3.00884 11.3844 2.9564 11.4926 2.8741 11.576L2.72535 11.7247C2.67556 11.7741 2.63604 11.8329 2.60907 11.8976C2.5821 11.9623 2.56821 12.0318 2.56821 12.1019C2.56821 12.172 2.5821 12.2415 2.60907 12.3062C2.63604 12.371 2.67556 12.4297 2.72535 12.4791L3.45848 13.2282C3.50787 13.278 3.56662 13.3175 3.63136 13.3445C3.6961 13.3714 3.76554 13.3853 3.83567 13.3853C3.9058 13.3853 3.97524 13.3714 4.03997 13.3445C4.10471 13.3175 4.16347 13.278 4.21285 13.2282L4.3616 13.0794C4.46056 12.9813 4.59411 12.9259 4.73348 12.9254Z" fill="white"/>
<path d="M7.96875 11.6875C7.23325 11.6875 6.51427 11.4694 5.90272 11.0608C5.29118 10.6522 4.81454 10.0714 4.53307 9.39186C4.25161 8.71234 4.17797 7.96463 4.32146 7.24326C4.46495 6.52189 4.81912 5.85927 5.3392 5.3392C5.85927 4.81912 6.52189 4.46495 7.24326 4.32146C7.96463 4.17797 8.71234 4.25161 9.39186 4.53307C10.0714 4.81454 10.6522 5.29118 11.0608 5.90272C11.4694 6.51427 11.6875 7.23325 11.6875 7.96875C11.6875 8.95503 11.2957 9.9009 10.5983 10.5983C9.9009 11.2957 8.95503 11.6875 7.96875 11.6875ZM7.96875 5.3125C7.44339 5.3125 6.92984 5.46829 6.49302 5.76016C6.0562 6.05203 5.71574 6.46688 5.5147 6.95225C5.31365 7.43762 5.26105 7.9717 5.36354 8.48696C5.46603 9.00222 5.71902 9.47552 6.0905 9.847C6.46198 10.2185 6.93528 10.4715 7.45054 10.574C7.96581 10.6765 8.49989 10.6239 8.98525 10.4228C9.47062 10.2218 9.88547 9.8813 10.1773 9.44448C10.4692 9.00767 10.625 8.49411 10.625 7.96875C10.625 7.26427 10.3451 6.58864 9.847 6.0905C9.34886 5.59236 8.67323 5.3125 7.96875 5.3125Z" fill="white"/>
</svg>
