<svg width="41" height="41" viewBox="0 0 41 41" fill="none" xmlns="http://www.w3.org/2000/svg">
<path d="M20.3125 40.625C16.2951 40.625 12.3679 39.4337 9.02749 37.2017C5.68712 34.9698 3.08361 31.7974 1.54621 28.0858C0.00880109 24.3741 -0.393454 20.29 0.390308 16.3497C1.17407 12.4095 3.10865 8.79016 5.9494 5.9494C8.79016 3.10865 12.4095 1.17407 16.3497 0.390308C20.29 -0.393454 24.3741 0.00880109 28.0858 1.54621C31.7974 3.08361 34.9698 5.68712 37.2017 9.02749C39.4337 12.3679 40.625 16.2951 40.625 20.3125C40.625 25.6997 38.4849 30.8663 34.6756 34.6756C30.8663 38.4849 25.6997 40.625 20.3125 40.625ZM20.3125 3.12501C16.9131 3.12501 13.5901 4.13304 10.7636 6.02162C7.93718 7.91021 5.73421 10.5945 4.43333 13.7351C3.13245 16.8757 2.79208 20.3316 3.45526 23.6656C4.11845 26.9997 5.7554 30.0622 8.15911 32.4659C10.5628 34.8696 13.6253 36.5066 16.9594 37.1698C20.2934 37.8329 23.7493 37.4926 26.8899 36.1917C30.0305 34.8908 32.7148 32.6878 34.6034 29.8614C36.492 27.0349 37.5 23.7119 37.5 20.3125C37.5 15.7541 35.6892 11.3824 32.4659 8.15911C29.2426 4.93583 24.8709 3.12501 20.3125 3.12501Z" fill="#5E7035"/>
<path d="M20.3125 21.875C18.7673 21.875 17.2569 21.4168 15.9721 20.5584C14.6874 19.6999 13.686 18.4798 13.0947 17.0522C12.5034 15.6247 12.3487 14.0538 12.6501 12.5384C12.9516 11.0229 13.6956 9.63083 14.7882 8.53823C15.8808 7.44563 17.2729 6.70157 18.7884 6.40012C20.3038 6.09867 21.8747 6.25339 23.3022 6.84469C24.7298 7.436 25.9499 8.43735 26.8084 9.72211C27.6668 11.0069 28.125 12.5173 28.125 14.0625C28.125 16.1345 27.3019 18.1216 25.8368 19.5868C24.3716 21.0519 22.3845 21.875 20.3125 21.875ZM20.3125 9.375C19.3854 9.375 18.4791 9.64992 17.7083 10.165C16.9374 10.6801 16.3366 11.4121 15.9818 12.2687C15.627 13.1252 15.5342 14.0677 15.7151 14.977C15.8959 15.8863 16.3424 16.7215 16.9979 17.3771C17.6535 18.0326 18.4887 18.4791 19.398 18.6599C20.3073 18.8408 21.2498 18.748 22.1063 18.3932C22.9629 18.0384 23.695 17.4376 24.21 16.6667C24.7251 15.8959 25 14.9896 25 14.0625C25 12.8193 24.5061 11.627 23.6271 10.7479C22.748 9.86886 21.5557 9.375 20.3125 9.375Z" fill="#5E7035"/>
<path d="M35.2347 32.8125C35.0178 32.814 34.803 32.7703 34.604 32.6842C34.4049 32.5982 34.2259 32.4716 34.0784 32.3125C32.42 30.5035 30.4041 29.0584 28.1583 28.0687C25.9125 27.0789 23.4858 26.5661 21.0316 26.5625H19.5941C15.0194 26.5527 10.6204 28.3235 7.32845 31.5C7.02429 31.751 6.63647 31.8777 6.2428 31.8547C5.84913 31.8317 5.47873 31.6607 5.20588 31.376C4.93303 31.0913 4.77793 30.7139 4.77168 30.3196C4.76543 29.9253 4.90851 29.5433 5.1722 29.25C9.04076 25.5109 14.2138 23.426 19.5941 23.4375H21.0316C23.9163 23.4441 26.7685 24.0471 29.409 25.2087C32.0495 26.3703 34.4213 28.0654 36.3753 30.1875C36.5818 30.4102 36.7189 30.6881 36.7699 30.9874C36.821 31.2866 36.7837 31.5943 36.6627 31.8728C36.5417 32.1512 36.3423 32.3884 36.0886 32.5553C35.835 32.7222 35.5383 32.8116 35.2347 32.8125Z" fill="#5E7035"/>
</svg>
